<svg id="Layer_1" data-name="Layer 1" xmlns="http://www.w3.org/2000/svg" viewBox="0 0 800 800"><defs><style>.cls-1,.cls-3{fill:#fff;}.cls-2{fill:#2d95bd;}.cls-3{opacity:0.8;}.cls-4{fill:transparent;}</style></defs><path class="cls-1" d="M649.54,38a431,431,0,0,1,52.15,3.21c5.44.65,10.25,1.84,11.55,8.05s-2.6,9.32-7.1,12.29C642.83,103.47,596.65,159.63,567,229.35c-57.17,134.5-27.21,295,74.49,400Q730.23,721,856.35,740.57c4.86.76,8.07,2.95,9.18,7.66,1.21,5.1-1.27,8.53-5.48,11.23a383.08,383.08,0,0,1-127.19,52.25c-82,17.61-162.23,11.09-238.85-23.26C373.15,734.28,295.82,642.31,267,513c-24.58-110.24-3.62-213.38,60.59-306.72C379.24,131.12,449.77,81.07,536.79,54.31A375.72,375.72,0,0,1,649.54,38ZM675,58.14C527,54,407.86,109.51,331.21,237.74c-78.59,131.47-75,266.81,7.6,395.6C407.53,740.44,510.3,793.61,638.11,802c-2.36-5-4-8.46-5.65-11.94-.77-1.64-2.26-3.82-.28-4.92,2.36-1.31,2.8,1.45,3.62,3,1.84,3.42,3.71,6.83,5.47,10.3,1,2,2.28,3.23,4.72,3.13,4.09-.15,8.2-.13,12.3-.13,2.9,0,3.72-.82,2-3.59-3.37-5.38-6.51-10.9-9.7-16.38-.92-1.59-2.09-3.55.27-4.69,2-1,2.72,1.11,3.56,2.45,3.89,6.26,7.75,12.53,11.66,18.78,1,1.54,1.86,3.17,4.18,3,7.71-.68,15.43-1.27,24.07-2-5.24-8.57-10-16.19-14.55-23.89-1.06-1.78-3.33-4.09-.31-5.73,2.43-1.33,3.41,1.44,4.48,3,4.91,7.31,9.72,14.69,14.64,22,1,1.46,1.71,3.59,4,3.22,5.51-.87,11.18-1.07,16.76-3.33-6.63-11.8-14.41-22.39-20-35.11,4,.59,4.41,3.21,5.59,4.92,6.06,8.76,12,17.62,17.93,26.43,1.15,1.7,2.25,3.51,4.87,2.69,5.57-1.76,11.55-2.16,17.3-4.9A161.47,161.47,0,0,1,724,760c-.81-1.38-2.28-3-.46-4.31,2.22-1.6,3.14.52,4.16,2.07a159.33,159.33,0,0,0,12.37,16.81c11.16,12.92,11.06,12.92,26.89,7.76,3.64-1.19,5.27-2.08,2-5.85-5.75-6.66-11-13.72-16.48-20.65-1.07-1.36-3.19-3-1.29-4.68,2.5-2.28,3.53.87,4.68,2.13,4.55,5,8.88,10.19,13.33,15.28,9.07,10.41,9.08,10.4,21.86,4.66a8.63,8.63,0,0,1,1.14-.48c2.67-.81,2.52-2,.75-3.83-3.87-3.95-7.61-8-11.42-12-1.45-1.53-3.18-3.19-1-5.16s3.73,0,5.16,1.43q6.45,6.6,12.85,13.23c1.21,1.25,1.92,3.06,4.45,1.79,8-4,16.37-7.39,24-12.16-1-1.76-2.53-1.54-3.87-1.85-38-8.82-74-22.57-107.64-42.34-83.94-49.4-142.8-119.67-175-211.8-1.43-4.09-2.85-5.17-7.28-4.34-18.59,3.46-35.83-.3-51.48-11-6.51-4.46-8.25-9.89-4.93-14.94s9-5.63,15.48-1.26a50.63,50.63,0,0,0,35.63,8.62c3.8-.47,5.1-1.52,3.9-5.82A318.24,318.24,0,0,1,521.14,414q-16.31-181.77,109-314.7C644.06,84.57,659.53,71.53,675,58.14Z" transform="translate(-65.84 -38.01)"/><path class="cls-2" d="M128.38,713.09c1.85-10.8,3.57-21.73,5.66-32.58a8.65,8.65,0,0,0-2.61-8.69c-8.29-8.5-16.23-17.33-24.34-26a11.42,11.42,0,0,1-2.6-12.47c1.69-4.87,5.54-6.38,10.09-6.51,10.65-.32,21.32-.63,32-.53,3.67,0,5.46-1.13,6.77-4.5,4.45-11.44,9.11-22.81,13.84-34.14,4.38-10.47,13.82-12.3,22-4.44,7.24,7,10,16.27,12.85,25.49,4.1,13.41,4,13.35,18.05,12.51,8-.47,16-.68,24-.91,5.29-.15,9.83,1.47,12,6.7s-.32,8.89-3.84,12.55c-8.09,8.42-15.88,17.12-23.91,25.6-2.36,2.49-2.88,4.77-1.87,8.22,3.44,11.82,6.43,23.72,4,36.27-1.79,9.29-7.12,12.34-15.94,8.66A130.45,130.45,0,0,1,185.72,702c-3-2.26-4.89-2.37-7.75.34-9.25,8.77-19.26,16.63-30.91,22-8.17,3.78-15.69.73-17.93-6.87A37.77,37.77,0,0,1,128.38,713.09Zm5.3-67.33c6.62,7,12,12.92,17.6,18.56A11.64,11.64,0,0,1,154.71,676c-1.65,7.5-3,15.08-4.61,23.78,8.75-5.74,15.25-12.21,22-18.41,7-6.49,10.64-6.56,18-.47A109.62,109.62,0,0,0,211.27,695c-.75-8.22-3-15-5.22-21.68s-1.28-11.74,3.77-16.68c4.86-4.75,9.08-10.16,14.58-16.41-7,.72-12.27,1.14-17.52,1.83-11.39,1.51-13.32.65-17.55-10.13-3.15-8.06-5.69-16.36-8.88-25.64-4.52,11.06-8.81,21-12.62,31.11-2.39,6.35-6.5,8.85-13.17,8.46C148.2,645.46,141.7,645.76,133.68,645.76Z" transform="translate(-65.84 -38.01)"/><path class="cls-2" d="M708.8,324.72c.92-5.38,2.11-12.86,3.52-20.29a7.16,7.16,0,0,0-2-7.15c-5.6-5.68-10.84-11.72-16.39-17.47-3.69-3.83-4.61-8.1-2.67-12.93,1.88-4.63,5.81-5.94,10.44-6,5.94-.11,11.92-.85,17.8-.38,5.55.43,8-1.71,9.63-6.75,2.3-7,5.32-13.73,8.27-20.47,3.93-9,12.64-10.66,19.88-4,6.19,5.7,8.88,13.33,10.55,21.09,1.36,6.31,4.41,7.43,10.15,6.68,6.07-.8,12.26-.64,18.4-.84,4.91-.15,8.92,1.49,11,6.23s.32,8.64-3.14,12.16c-4.87,5-9.36,10.32-14.39,15.12-3.68,3.52-4.72,7-3,11.89A47.83,47.83,0,0,1,789,323.41c-1.22,10.09-7,13.46-16.31,9.52A87.71,87.71,0,0,1,754,322.44c-2.75-2.06-4.49-1.68-6.81.44-6.35,5.84-13.2,11.08-21.09,14.67C716.67,341.83,708.5,336.67,708.8,324.72ZM768.07,308c-.45-6.22-3.93-11.14-3.3-16.75.69-6.09,7-8.63,9.65-14.34-6.38-.43-13.29,3.64-17.95-2.94-3.63-5.13-4.83-11.4-7.5-17.68-2.9,6.83-5,13.29-8.27,19.16-4.26,7.71-12.62,2.82-19.2,4.93,3.85,4.46,8.08,8.19,10.79,12.82,3.1,5.32-1.38,11.05-.88,17.8,3.49-3.21,6.44-5.9,9.37-8.63,6.76-6.27,10.57-6.44,17.62-.76C761.25,303.91,764,306.31,768.07,308Z" transform="translate(-65.84 -38.01)"/><path class="cls-3" d="M320.24,744.07c9.74.33,17.14,8,16.78,17.46-.33,8.89-6.94,15.91-14.8,15.7-11.27-.29-19.6-8.1-19.29-18.05C303.22,750.06,310.46,743.74,320.24,744.07Z" transform="translate(-65.84 -38.01)"/><path class="cls-3" d="M703.66,517.46c-.06,8.82-6.56,15.77-14.68,15.68-11.47-.11-19.56-7.49-19.41-17.69.14-8.8,7.22-15.45,16.46-15.45A17.44,17.44,0,0,1,703.66,517.46Z" transform="translate(-65.84 -38.01)"/><path class="cls-3" d="M196.57,361.44c.09,8.55-8.33,19-15.2,18.95-7.9-.1-15.43-8.3-15.53-16.93-.1-8.07,7.21-16.13,14.67-16.16C190,347.26,196.49,353,196.57,361.44Z" transform="translate(-65.84 -38.01)"/><path class="cls-3" d="M774.35,617.7c-8.73.08-15.85-5.32-15.9-12.07-.06-7.21,6-13.7,13-13.77,7.86-.08,15.15,7.48,15.08,15.62C786.44,613.61,781.65,617.63,774.35,617.7Z" transform="translate(-65.84 -38.01)"/><path class="cls-3" d="M85.26,340.42a9.71,9.71,0,0,1-9.71,9.67,10,10,0,0,1-9.71-9.74,9.71,9.71,0,0,1,9.77-9.61A9.6,9.6,0,0,1,85.26,340.42Z" transform="translate(-65.84 -38.01)"/><path class="cls-3" d="M280.91,818.76a9.58,9.58,0,0,1,9.9,9.56,9.66,9.66,0,1,1-9.9-9.56Z" transform="translate(-65.84 -38.01)"/><path class="cls-3" d="M209.34,244.78a9.83,9.83,0,0,1-9.79,9.63,10,10,0,0,1-9.71-9.78,9.75,9.75,0,0,1,19.5.15Z" transform="translate(-65.84 -38.01)"/><path class="cls-3" d="M848,502.22a9.73,9.73,0,0,1-9.63-9.76c.07-5.16,4.76-9.83,9.8-9.73a10.25,10.25,0,0,1,9.68,9.92A9.84,9.84,0,0,1,848,502.22Z" transform="translate(-65.84 -38.01)"/><path class="cls-3" d="M397.24,820.79a9.63,9.63,0,1,1,9.48-9.95A9.61,9.61,0,0,1,397.24,820.79Z" transform="translate(-65.84 -38.01)"/><path class="cls-4" d="M675,58.14c-15.51,13.39-31,26.43-44.89,41.15Q504.66,232.06,521.14,414a318.24,318.24,0,0,0,10.68,57.3c1.2,4.3-.1,5.35-3.9,5.82a50.63,50.63,0,0,1-35.63-8.62c-6.51-4.37-12.1-3.86-15.48,1.26s-1.58,10.48,4.93,14.94c15.65,10.7,32.89,14.46,51.48,11,4.43-.83,5.85.25,7.28,4.34,32.2,92.13,91.06,162.4,175,211.8,33.59,19.77,69.67,33.52,107.64,42.34,1.34.31,2.91.09,3.87,1.85-7.64,4.77-16,8.12-24,12.16-2.53,1.27-3.24-.54-4.45-1.79q-6.42-6.61-12.85-13.23c-1.43-1.46-3-3.37-5.16-1.43s-.46,3.63,1,5.16c3.81,4,7.55,8.09,11.42,12,1.77,1.81,1.92,3-.75,3.83a8.63,8.63,0,0,0-1.14.48c-12.78,5.74-12.79,5.75-21.86-4.66-4.45-5.09-8.78-10.29-13.33-15.28-1.15-1.26-2.18-4.41-4.68-2.13-1.9,1.73.22,3.32,1.29,4.68,5.44,6.93,10.73,14,16.48,20.65,3.26,3.77,1.63,4.66-2,5.85-15.83,5.16-15.73,5.16-26.89-7.76a159.33,159.33,0,0,1-12.37-16.81c-1-1.55-1.94-3.67-4.16-2.07-1.82,1.32-.35,2.93.46,4.31a161.47,161.47,0,0,0,21.13,28.23c-5.75,2.74-11.73,3.14-17.3,4.9-2.62.82-3.72-1-4.87-2.69-6-8.81-11.87-17.67-17.93-26.43-1.18-1.71-1.57-4.33-5.59-4.92,5.54,12.72,13.32,23.31,20,35.11-5.58,2.26-11.25,2.46-16.76,3.33-2.33.37-3.07-1.76-4-3.22-4.92-7.3-9.73-14.68-14.64-22-1.07-1.58-2.05-4.35-4.48-3-3,1.64-.75,3.95.31,5.73,4.6,7.7,9.31,15.32,14.55,23.89-8.64.7-16.36,1.29-24.07,2-2.32.2-3.22-1.43-4.18-3-3.91-6.25-7.77-12.52-11.66-18.78-.84-1.34-1.51-3.45-3.56-2.45-2.36,1.14-1.19,3.1-.27,4.69,3.19,5.48,6.33,11,9.7,16.38,1.73,2.77.91,3.59-2,3.59-4.1,0-8.21,0-12.3.13-2.44.1-3.71-1.14-4.72-3.13-1.76-3.47-3.63-6.88-5.47-10.3-.82-1.53-1.26-4.29-3.62-3-2,1.1-.49,3.28.28,4.92,1.63,3.48,3.29,7,5.65,11.94-127.81-8.34-230.58-61.51-299.3-168.61-82.65-128.79-86.19-264.13-7.6-395.6C407.86,109.51,527,54,675,58.14ZM300.59,386.7c-.06,1.22-.16,2.45-.18,3.68,0,1.56-.78,3.78,1.35,4.18,2.79.53,2.41-2.15,2.74-3.78.81-4,1.4-8.07,2.2-12.08,21.16-107.1,77.94-189.06,172.6-244.33,4.4-2.57,9.16-4.67,12.79-8.42,1.25-1.3,3-2.51,2.15-4.67-1-2.59-3.37-1.91-5.32-1.59-7.45,1.19-13.87,5-20.2,8.69-51.83,30.33-93.45,71.08-123.72,123C320.57,293.22,304.09,337.88,300.59,386.7Zm183.74-10.31c-.12-2.45.13-5-.45-7.32-1.16-4.69-4.38-7.39-9.32-7.31s-8.18,2.51-9.3,7.35a30.36,30.36,0,0,0-.43,5.49c-.38,8.91-2.15,17.51-6.34,25.42s-11.07,8.71-17.28,2c-2.87-3.09-4.31-6.9-5.37-10.9-1.55-5.78-1.43-11.78-2.33-17.64-.83-5.41-4.26-8.28-9.72-8.34-5-.06-9.32,3.69-9.26,8.77.16,11.73,1.1,23.47,7.06,33.93,6.66,11.7,16.6,18.74,30.54,18.06,13.13-.64,20.39-9.28,25.33-20.34A82.06,82.06,0,0,0,484.33,376.39Z" transform="translate(-65.84 -38.01)"/><path class="cls-4" d="M133.68,645.76c8,0,14.52-.3,21,.08,6.67.39,10.78-2.11,13.17-8.46,3.81-10.11,8.1-20,12.62-31.11,3.19,9.28,5.73,17.58,8.88,25.64,4.23,10.78,6.16,11.64,17.55,10.13,5.25-.69,10.54-1.11,17.52-1.83-5.5,6.25-9.72,11.66-14.58,16.41-5,4.94-6,10.11-3.77,16.68s4.47,13.46,5.22,21.68a109.62,109.62,0,0,1-21.17-14.09c-7.4-6.09-11-6-18,.47-6.71,6.2-13.21,12.67-22,18.41,1.66-8.7,3-16.28,4.61-23.78a11.64,11.64,0,0,0-3.43-11.67C145.65,658.68,140.3,652.77,133.68,645.76Z" transform="translate(-65.84 -38.01)"/><path class="cls-4" d="M768.07,308c-4-1.69-6.82-4.09-9.67-6.39-7-5.68-10.86-5.51-17.62.76-2.93,2.73-5.88,5.42-9.37,8.63-.5-6.75,4-12.48.88-17.8-2.71-4.63-6.94-8.36-10.79-12.82,6.58-2.11,14.94,2.78,19.2-4.93,3.23-5.87,5.37-12.33,8.27-19.16,2.67,6.28,3.87,12.55,7.5,17.68,4.66,6.58,11.57,2.51,17.95,2.94-2.61,5.71-9,8.25-9.65,14.34C764.14,296.86,767.62,301.78,768.07,308Z" transform="translate(-65.84 -38.01)"/><path class="cls-1" d="M300.59,386.7c3.5-48.82,20-93.48,44.41-135.35,30.27-51.89,71.89-92.64,123.72-123,6.33-3.71,12.75-7.5,20.2-8.69,1.95-.32,4.28-1,5.32,1.59.87,2.16-.9,3.37-2.15,4.67-3.63,3.75-8.39,5.85-12.79,8.42C384.64,189.64,327.86,271.6,306.7,378.7c-.8,4-1.39,8.07-2.2,12.08-.33,1.63.05,4.31-2.74,3.78-2.13-.4-1.37-2.62-1.35-4.18C300.43,389.15,300.53,387.92,300.59,386.7Z" transform="translate(-65.84 -38.01)"/><path class="cls-1" d="M484.33,376.39a82.06,82.06,0,0,1-6.87,29.17c-4.94,11.06-12.2,19.7-25.33,20.34-13.94.68-23.88-6.36-30.54-18.06-6-10.46-6.9-22.2-7.06-33.93-.06-5.08,4.22-8.83,9.26-8.77,5.46.06,8.89,2.93,9.72,8.34.9,5.86.78,11.86,2.33,17.64,1.06,4,2.5,7.81,5.37,10.9,6.21,6.71,13.05,6,17.28-2s6-16.51,6.34-25.42a30.36,30.36,0,0,1,.43-5.49c1.12-4.84,4.45-7.27,9.3-7.35s8.16,2.62,9.32,7.31C484.46,371.4,484.21,373.94,484.33,376.39Z" transform="translate(-65.84 -38.01)"/></svg>